<svg width="40" height="40" viewBox="0 0 40 40" fill="none" xmlns="http://www.w3.org/2000/svg">
<g id="iconspace_Camera 1_25px">
<path id="Path" fill-rule="evenodd" clip-rule="evenodd" d="M11.506 9.60003L12.8967 6.8193C13.0236 6.58487 13.2294 6.25162 13.4913 5.91173C13.8289 5.47358 14.1705 5.14447 14.5544 4.95723C14.7601 4.8569 14.9756 4.80003 15.2003 4.80003H24.8003C25.0251 4.80003 25.2405 4.8569 25.4462 4.95723C25.8302 5.14447 26.1717 5.47358 26.5093 5.91173C26.7712 6.25162 26.9771 6.58487 27.1159 6.84226L28.4947 9.60003H31.2003C34.2931 9.60003 36.8003 12.1072 36.8003 15.2V29.6C36.8003 32.6928 34.2931 35.2 31.2003 35.2H8.80032C5.70752 35.2 3.20032 32.6928 3.20032 29.6V15.2C3.20032 12.1072 5.70752 9.60003 8.80032 9.60003H11.506ZM9.60049 17.6003C10.4841 17.6003 11.2005 16.884 11.2005 16.0003C11.2005 15.1167 10.4841 14.4003 9.60049 14.4003C8.71684 14.4003 8.00049 15.1167 8.00049 16.0003C8.00049 16.884 8.71684 17.6003 9.60049 17.6003ZM27.2005 21.6003C27.2005 25.5768 23.977 28.8003 20.0005 28.8003C16.0241 28.8003 12.8005 25.5768 12.8005 21.6003C12.8005 17.6239 16.0241 14.4003 20.0005 14.4003C23.977 14.4003 27.2005 17.6239 27.2005 21.6003Z" fill="#FF8345"/>
<path id="Path_2" fill-rule="evenodd" clip-rule="evenodd" d="M20.0001 27.1998C23.0929 27.1998 25.6001 24.6926 25.6001 21.5998C25.6001 18.507 23.0929 15.9998 20.0001 15.9998C16.9073 15.9998 14.4001 18.507 14.4001 21.5998C14.4001 24.6926 16.9073 27.1998 20.0001 27.1998Z" fill="#FF8345"/>
</g>
</svg>
