<svg width="40" height="40" viewBox="0 0 40 40" fill="none" xmlns="http://www.w3.org/2000/svg">
<path d="M11.6667 3.33334C9.83333 3.33334 8.33333 4.83334 8.33333 6.66667C8.33333 8.5 9.83333 10 11.6667 10C13.5 10 15 8.51667 15 6.66667C15 4.81667 13.5167 3.33334 11.6667 3.33334ZM8.33333 11.6667C6.48333 11.6667 5 13.15 5 15V25H8.33333V36.6667H16.6667V19.3333L20.8833 26.6667H24.95L26.6667 24.4333V36.6667H33.3333V28.3333H35V23.3333C35 21.4833 33.5167 20 31.6667 20H27.5C26.5 20 25.6167 20.4333 25 21.1333C24.45 21.8333 23.8667 22.6 23.3333 23.3333H22.8167L16.6667 12.7667C16.4 12.3 15.3667 11.6667 14.1667 11.6667H8.33333ZM30 13.3333C28.6167 13.3333 27.5 14.45 27.5 15.8333C27.5 17.2167 28.6167 18.3333 30 18.3333C31.3833 18.3333 32.5 17.2167 32.5 15.8333C32.5 14.45 31.3833 13.3333 30 13.3333Z" fill="#FF8345"/>
</svg>
